<svg width="100%" height="100%" viewBox="0 0 374 392" fill="none" xmlns="http://www.w3.org/2000/svg" preserveAspectRatio="none"><path opacity="0.456" d="M163.126 370.628C155.872 370.715 148.68 369.299 142 366.47C135.691 363.758 130.067 359.671 125.54 354.506C120.736 348.903 117.126 342.378 114.934 335.331C112.323 326.928 111.063 318.164 111.201 309.367C111.076 300.598 112.336 291.864 114.934 283.488C117.113 276.41 120.723 269.854 125.54 264.228C130.067 259.063 135.691 254.975 142 252.263C148.68 249.434 155.872 248.019 163.126 248.106C168.078 248.019 173.018 248.62 177.805 249.893C181.586 250.932 185.21 252.473 188.58 254.475C191.521 256.244 194.18 258.443 196.471 260.998C198.678 263.487 200.686 265.976 202.496 268.465L183.999 281.871C181.94 277.95 179.008 274.553 175.43 271.944C171.762 269.612 167.469 268.458 163.127 268.634C157.816 268.591 152.667 270.458 148.618 273.895C144.216 277.656 141.101 282.7 139.709 288.32H178.738V303.593H138.349V315.132H178.738V330.404H139.708C141.291 336.853 144.176 341.746 148.362 345.084C152.548 348.423 157.769 350.195 163.123 350.094C172.74 350.094 180.263 345.286 185.693 335.669L204.193 349.246C202.395 351.977 200.38 354.558 198.168 356.965C195.683 359.648 192.828 361.963 189.689 363.84C186.082 365.993 182.201 367.648 178.15 368.762C173.253 370.076 168.196 370.704 163.126 370.628V370.628Z" fill="white" data-color-group="0"/><path opacity="0.08" d="M240.07 83.4287C235.722 85.1845 231.059 86.0212 226.372 85.8859C221.936 85.7344 217.589 84.5934 213.651 82.5465C209.442 80.3009 205.736 77.219 202.761 73.49C199.216 69.0432 196.399 64.0618 194.416 58.7317C192.281 53.4806 190.989 47.9254 190.587 42.2713C190.237 37.4969 190.872 32.7015 192.451 28.1824C193.965 24.0094 196.391 20.2273 199.554 17.1125C202.912 13.8404 206.911 11.299 211.299 9.6483C214.261 8.43297 217.377 7.63513 220.558 7.27767C223.079 7.01517 225.623 7.09201 228.123 7.50613C230.309 7.88116 232.427 8.5806 234.406 9.5813C236.319 10.562 238.113 11.5893 239.788 12.663L231.797 25.0797C229.637 23.2018 227.074 21.8449 224.306 21.1137C221.55 20.5712 218.694 20.8838 216.12 22.0097C212.912 23.2308 210.25 25.5643 208.619 28.5848C206.851 31.8832 206.159 35.6521 206.641 39.3632L230.144 30.1983L233.73 39.3952L209.409 48.8794L212.118 55.828L236.44 46.3438L240.026 55.5407L216.522 64.7059C218.99 68.2173 221.876 70.4865 225.181 71.5133C228.486 72.5412 232.046 72.3824 235.246 71.0644C241.037 68.8062 244.439 64.1441 245.45 57.078L259.779 60.9098C259.337 62.9762 258.73 65.0037 257.963 66.9727C257.097 69.1719 255.921 71.2363 254.472 73.1038C252.805 75.247 250.857 77.1553 248.679 78.7769C246.038 80.7184 243.141 82.2839 240.07 83.4287V83.4287Z" fill="white" data-color-group="0"/><path opacity="0.3" d="M190.906 195.59V215.813H167.642V195.59H142.097V181.905H167.642V171.566H142.097V157.882H158.823L133.126 109.678H159.282L180.266 151.492H180.57L201.402 109.678H226.188L199.731 157.882H216.45V171.566H190.906V181.905H216.45V195.59H190.906Z" fill="white" data-color-group="0"/><path opacity="0.8" d="M325.926 371.141L317.447 357.029C310.335 360.683 302.56 362.869 294.585 363.456C287.742 363.81 280.888 362.982 274.325 361.009L280.577 340.141C285.26 341.412 290.105 341.983 294.955 341.835C299.831 341.654 304.631 340.573 309.113 338.644L292.527 311.04C279.558 315.632 269.063 316.927 261.042 314.927C257.111 313.967 253.419 312.212 250.192 309.77C246.965 307.328 244.273 304.251 242.281 300.729C237.427 292.651 236.046 284.504 238.137 276.287C240.229 268.07 245.896 260.42 255.14 253.336L246.477 238.918L263.965 228.41L272.629 242.828C278.556 240.029 284.927 238.285 291.454 237.675C297.38 237.204 303.341 237.914 308.991 239.765L302.587 260.724C299.369 259.761 296.036 259.235 292.677 259.163C288.737 259.132 284.822 259.792 281.111 261.115L296.411 286.578C308.725 282.519 318.846 281.239 326.776 282.738C334.705 284.237 341.035 288.924 345.766 296.798C350.253 304.057 351.924 312.709 350.462 321.116C349.045 329.761 343.746 338.025 334.565 345.908L343.413 360.634L325.926 371.141ZM263.081 287.397C263.772 288.719 264.741 289.875 265.92 290.788C267.099 291.701 268.462 292.349 269.914 292.686C273.61 293.18 277.369 292.846 280.921 291.71L267.278 269.006C263.884 272.159 261.891 275.27 261.3 278.34C260.718 281.475 261.355 284.715 263.081 287.397ZM325.613 311.203C324.197 308.896 322.144 307.047 319.701 305.882C317.112 304.585 313.219 304.592 308.023 305.904L322.586 330.141C325.252 327.549 327.028 324.18 327.66 320.516C328.076 317.268 327.353 313.977 325.613 311.203Z" fill="white" data-color-group="0"/><path opacity="0.05" d="M19.3205 357.193L23.2254 349.039C19.4002 346.884 16.0477 343.981 13.3677 340.503C11.1361 337.473 9.44329 334.082 8.36373 330.477L19.8191 327.033C20.6523 329.564 21.8555 331.958 23.3897 334.136C24.9467 336.316 26.8939 338.19 29.1328 339.661L36.7711 323.713C30.7455 319.156 26.9787 314.737 25.4705 310.456C24.7222 308.364 24.4103 306.14 24.5539 303.923C24.6976 301.706 25.2939 299.542 26.3059 297.564C28.5413 292.896 31.8583 289.8 36.257 288.274C40.6557 286.749 45.8759 287.034 51.9177 289.129L55.9074 280.799L66.0115 285.638L62.0218 293.968C65.097 295.839 67.8223 298.232 70.0754 301.039C72.083 303.613 73.5597 306.56 74.4198 309.709L62.8763 313.111C62.345 311.345 61.578 309.658 60.596 308.097C59.419 306.281 57.9325 304.687 56.2042 303.385L49.1583 318.097C54.7418 322.514 58.3887 326.767 60.0989 330.854C61.8092 334.942 61.5749 339.261 59.3961 343.81C57.4252 348.061 53.9645 351.443 49.6687 353.315C45.2777 355.279 39.8877 355.349 33.4987 353.523L29.4238 362.032L19.3205 357.193ZM38.7059 303.067C38.3091 303.783 38.0717 304.577 38.0098 305.394C37.9479 306.21 38.0631 307.03 38.3473 307.798C39.2386 309.641 40.5281 311.264 42.1225 312.548L48.405 299.431C45.9336 298.828 43.9051 298.855 42.3193 299.512C40.7058 300.193 39.4134 301.465 38.7059 303.067ZM46.6997 338.927C47.3295 337.581 47.5558 336.081 47.3513 334.609C47.1631 333.03 45.9828 331.248 43.8105 329.263L37.1041 343.265C39.0979 343.704 41.1794 343.5 43.0498 342.681C44.6644 341.89 45.9544 340.564 46.6997 338.927Z" fill="white" data-color-group="0"/><path opacity="0.4" d="M236.533 167.861L246.331 148.403C250.325 148.978 254.338 148.388 257.955 146.695C261.572 144.907 264.506 141.865 266.317 138.023C267.133 136.44 267.751 134.739 268.155 132.961L253.178 123.5L261.823 106.332L270.732 111.959C271.036 109.422 271.522 106.923 272.183 104.485C272.898 101.866 273.867 99.3501 275.075 96.9772C277.11 92.8056 279.982 89.213 283.488 86.4515C286.877 83.8274 290.814 82.1194 294.992 81.4603C299.507 80.7742 304.142 81.0452 308.645 82.2585C313.875 83.6659 318.913 85.9267 323.585 88.9625C330.159 92.8571 335.825 98.4118 340.082 105.135C343.878 111.585 346.161 118.897 346.722 126.395L326.328 128.033C325.781 123.741 324.424 119.578 322.342 115.809C320.395 112.595 317.763 109.926 314.685 108.043C310.276 105.258 306.289 104.343 302.725 105.297C299.161 106.252 296.251 108.971 293.996 113.455C293.095 115.202 292.393 117.069 291.906 119.017C291.463 120.874 291.108 122.758 290.842 124.663L317.297 141.375L308.652 158.544L288.405 145.754C288.159 146.478 287.902 147.165 287.635 147.813C287.367 148.462 287.041 149.167 286.657 149.93C285.553 152.208 284.102 154.254 282.362 155.986C280.859 157.466 279.142 158.671 277.274 159.558C275.61 160.348 273.845 160.883 272.027 161.147C270.43 161.375 268.811 161.456 267.189 161.391L266.54 162.679L311.625 191.159L302.404 209.472L236.533 167.861Z" fill="white" data-color-group="0"/><g opacity="0.2"><path d="M59.0518 252.183V169.433H113.942V185.437H77.0719V202.39H108.489V218.277H77.0719V252.183H59.0518Z" fill="white" data-color-group="0"/><rect x="46.8975" y="237.812" width="46.1402" height="11.3459" fill="white" data-color-group="0"/><rect x="59" y="243.862" width="18.1535" height="21.1791" fill="white" data-color-group="0"/></g></svg>